<svg width="18" height="23" viewBox="0 0 18 23" fill="none" xmlns="http://www.w3.org/2000/svg">
<path d="M0 2.875C0 1.28718 1.28718 0 2.875 0H14.375C15.9628 0 17.25 1.28718 17.25 2.875V22.2812C17.25 22.5463 17.1041 22.7899 16.8704 22.915C16.6367 23.04 16.3531 23.0263 16.1326 22.8793L8.625 18.8326L1.11744 22.8793C0.896888 23.0263 0.613309 23.04 0.379602 22.915C0.145895 22.7899 0 22.5463 0 22.2812V2.875ZM2.875 1.4375C2.08109 1.4375 1.4375 2.08109 1.4375 2.875V20.9383L8.22631 17.3707C8.46774 17.2098 8.78226 17.2098 9.02369 17.3707L15.8125 20.9383V2.875C15.8125 2.08109 15.1689 1.4375 14.375 1.4375H2.875Z" fill="black"/>
</svg>
